<svg xmlns="http://www.w3.org/2000/svg" viewBox="0 0 487 320.09"><defs><style>.cls-1{fill:#b5e2ea;}.cls-2{fill:#9ad9eb;}.cls-3{fill:#f68c40;}.cls-4{fill:#ffea7b;}.cls-5,.cls-6{fill:#fdba54;}.cls-6{opacity:0.41;}.cls-7{fill:#f0f3f3;}.cls-8{fill:#fdf0e8;}.cls-9{fill:#414042;}</style></defs><title>logo</title><g id="Layer_2" data-name="Layer 2"><g id="_8beer_logo_med_size" data-name="8beer_logo med size"><g id="logo"><g id="beerJar"><rect id="hang-out" class="cls-1" y="85.8" width="9.6" height="86.4"/><polygon id="jar-bracketleft" class="cls-1" points="48 76.19 48 66.59 124.8 66.59 124.8 85.8 57.6 85.8 57.6 201 124.8 201 124.8 210.59 48 210.59 48 85.8 9.6 85.8 9.6 76.19 48 76.19"/><polygon id="jar-right_braket" data-name="jar-right braket" class="cls-2" points="163.2 220.19 57.6 220.19 57.6 210.59 124.8 210.59 124.8 201 163.2 201 163.2 85.8 153.6 85.8 153.6 66.59 172.8 66.59 172.8 210.59 163.2 210.59 163.2 220.19"/><polygon id="hanger" class="cls-2" points="48 85.8 48 95.39 19.2 95.39 19.2 162.59 48 162.59 48 181.79 9.6 181.79 9.6 85.8 48 85.8"/><polygon id="shadow-beer" class="cls-3" points="115.2 201 115.2 85.8 124.8 85.8 124.8 191.4 134.4 191.4 134.4 124.19 144 124.19 144 114.59 153.6 114.59 153.6 191.4 163.2 191.4 163.2 201 115.2 201"/><rect id="square-shadow-bubble" class="cls-3" x="153.6" y="85.8" width="9.6" height="9.6"/><rect id="vertcal_dent" data-name="vertcal dent" class="cls-4" x="67.2" y="95.4" width="9.6" height="96"/><rect id="vertcal_dent_2" data-name="vertcal dent 2" class="cls-4" x="96" y="95.4" width="9.6" height="96"/><path id="kigth_beer" data-name="kigth beer" class="cls-5" d="M115.2,201V85.8H57.6V201ZM76.8,95.4v96H67.2v-96Zm28.8,96H96v-96h9.6Z"/><rect id="vertcal_dent_3" data-name="vertcal dent 3" class="cls-5" x="153.6" y="95.4" width="9.6" height="96"/><rect id="vercal_dent_4" data-name="vercal dent 4" class="cls-5" x="124.8" y="114.59" width="9.6" height="76.8"/><rect id="top_beer_2" data-name="top beer 2" class="cls-6" x="57.6" y="73.06" width="67.2" height="12.74" transform="translate(182.4 158.85) rotate(-180)"/><rect id="top_beer" data-name="top beer" class="cls-6" x="153.6" y="73.06" width="9.6" height="12.74" transform="translate(316.8 158.85) rotate(-180)"/><rect id="bubble" class="cls-7" x="109.23" y="88.02" width="3.25" height="3.25" transform="translate(221.71 179.3) rotate(-180)"/><rect id="bubble_square2" data-name="bubble square2" class="cls-7" x="91.2" y="90.52" width="3.77" height="3.77" transform="translate(186.17 184.82) rotate(-180)"/><rect id="bubble_square3" data-name="bubble square3" class="cls-7" x="86.4" y="93.01" width="2.58" height="2.58" transform="translate(175.38 188.59) rotate(-180)"/><rect id="bubble_square5" data-name="bubble square5" class="cls-7" x="115.84" y="100.45" width="3.77" height="3.77" transform="translate(235.46 204.67) rotate(-180)"/><rect id="bubble_square4" data-name="bubble square4" class="cls-7" x="119.12" y="89.4" width="2.25" height="2.25" transform="translate(240.49 181.05) rotate(-180)"/><rect id="bubble_square_corner" data-name="bubble square corner" class="cls-7" x="155.9" y="87.15" width="5.01" height="5.01" transform="translate(316.8 179.3) rotate(-180)"/><rect id="bubble_square6" data-name="bubble square6" class="cls-7" x="109.34" y="106.16" width="3.03" height="3.03" transform="translate(221.71 215.34) rotate(-180)"/><rect id="bubble_square7" data-name="bubble square7" class="cls-7" x="77.5" y="89.46" width="2.13" height="2.13" transform="translate(157.13 181.05) rotate(-180)"/><rect id="bubble_square8" data-name="bubble square8" class="cls-7" x="62.04" y="106.16" width="3.03" height="3.03" transform="translate(127.1 215.34) rotate(-180)"/><rect id="bubble_square" data-name="bubble square" class="cls-7" x="62.73" y="90.77" width="1.64" height="1.64" transform="translate(127.1 183.18) rotate(-180)"/><g id="foamBeer"><rect id="bubble_square_topp" data-name="bubble square topp" class="cls-8" x="156.52" y="15.38" width="10.2" height="10.2" transform="translate(323.25 40.96) rotate(-180)"/><rect id="foam1" class="cls-8" x="64.37" y="18" width="37.64" height="10.2" transform="translate(166.37 46.19) rotate(-180)"/><rect id="foamtop" class="cls-8" x="81.98" y="8.25" width="37.64" height="10.2" transform="translate(201.6 26.69) rotate(-180)"/><rect id="foamtop2" class="cls-8" x="110.78" y="18" width="33.22" height="10.2" transform="translate(254.78 46.19) rotate(-180)"/><rect id="bubble_square_top3" data-name="bubble square top3" class="cls-8" x="73.78" y="18" width="9.41" height="9.41" transform="translate(156.96 45.4) rotate(-180)"/><path id="foam_base" data-name="foam base" class="cls-8" d="M48,37.8V66.59h76.8v48h9.6v9.61H144v-9.61h9.6v-48h19.2V37.8h-9.6V28.2H57.6v9.6Zm71.12-6.19h6.5v6.5H137V49.47H125.62V38.11h-6.5ZM102.6,40.79h6v6h-6ZM78.53,43.13H91.2V55.8H78.53Z"/><rect id="bubble_squaretop3" data-name="bubble squaretop3" class="cls-8" x="122.37" width="6.5" height="6.5" transform="translate(251.23 6.5) rotate(-180)"/><rect id="bubble_square_top5" data-name="bubble square top5" class="cls-8" x="38.81" y="27.41" width="9.19" height="9.19" transform="translate(86.81 64) rotate(-180)"/><rect id="bubble_square_top6" data-name="bubble square top6" class="cls-8" x="52.95" y="13.35" width="4.65" height="4.65" transform="translate(110.55 31.34) rotate(-180)"/></g></g><path class="cls-9" d="M191.21,220.06v-9h-9V148.35h9v-9h-9V85.61h9v-9h35.85v9h9v53.78h-9v9h9v62.74h-9v9Zm26.89-80.67V94.57H200.17v44.82Zm0,62.74V157.31H200.17v44.82Z"/><path class="cls-3" d="M245,220.06V76.64h44.82v9h9v53.78h-9v9h9v62.74h-9v9Zm35.85-80.67V94.57H262.92v44.82Zm0,62.74V157.31H262.92v44.82Z"/><path class="cls-3" d="M316.7,220.06v-9h-9V121.46h9v-9h35.85v9h9v44.82H325.66v35.85h17.93V184.2h17.93v26.89h-9v9Zm26.89-71.71V130.42H325.66v17.93Z"/><path class="cls-3" d="M379.44,220.06v-9h-9V121.46h9v-9H415.3v9h9v44.82H388.41v35.85h17.92V184.2h17.93v26.89h-9v9Zm26.89-71.71V130.42H388.41v17.93Z"/><path class="cls-3" d="M433.22,220.06v-98.6h9v-9H478v9h9v17.93H469.08v-9H451.15v89.64Z"/><path class="cls-9" d="M109.74,246.12h6v6h18.06v-6h6v24h-6v-12H115.76v12h-6Zm6-6h18.06v6H115.76Z"/><path class="cls-9" d="M161,240.1h24.08v6H167.06v6h18.06v6H167.06v12h-6Zm24.08,6h6v6h-6Zm0,12h6v12h-6Z"/><path class="cls-9" d="M212.34,246.12h6v18.06h-6Zm6-6h18.06v6H218.36Zm0,24.08h18.06v5.94H218.36Zm18.06-18.06h6v6h-6Zm0,12h6v6h-6Z"/><path class="cls-9" d="M263.64,246.12h6v6h18.06v-6h6v24h-6v-12H269.66v12h-6Zm6-6h18.06v6H269.66Z"/><path class="cls-9" d="M315,240.1H339v6H321v18.06h18v5.94H315Zm24.07,6h6v18.06h-6Z"/><path class="cls-9" d="M366.25,240.1h30.1v6H372.27v6h18.06v6H372.27v6h24.08v5.94h-30.1Z"/><path class="cls-9" d="M115.76,296.1h6v6h6v6h-6v6h-6v-6h-6v-6h6Z"/><path class="cls-9" d="M179.36,290.08h24.07v6H185.38v6h18.05v6H185.38v6h18.05v5.93H179.36Zm24.07,6h6v6h-6Zm0,12h6v6h-6Z"/><path class="cls-9" d="M230.66,296.1h6v6h18.06v-6h6v24h-6V308.14H236.68v11.95h-6Zm6-6h18.06v6H236.68Z"/><path class="cls-9" d="M282,290.08H306v6H288v6H306v6H288v11.95h-6Zm24.08,6h6v6h-6Zm0,12h6v11.95h-6Z"/></g></g></g></svg>